<svg width="25" height="25" viewBox="0 0 25 25" fill="none" xmlns="http://www.w3.org/2000/svg">
<path d="M12.4 24H2C1.73478 24 1.48043 23.8946 1.29289 23.7071C1.10536 23.5196 1 23.2652 1 23V2.5C1 2.23478 1.10536 1.98043 1.29289 1.79289C1.48043 1.60536 1.73478 1.5 2 1.5H22.5C22.7652 1.5 23.0196 1.60536 23.2071 1.79289C23.3946 1.98043 23.5 2.23478 23.5 2.5V23C23.5 23.2652 23.3946 23.5196 23.2071 23.7071C23.0196 23.8946 22.7652 24 22.5 24H16.4V15.5H18.96C19.0828 15.5009 19.2017 15.4565 19.2939 15.3754C19.3861 15.2942 19.4453 15.182 19.46 15.06L19.84 12.06C19.8485 11.9895 19.8419 11.918 19.8206 11.8502C19.7994 11.7824 19.7639 11.72 19.7166 11.667C19.6693 11.614 19.6112 11.5717 19.5463 11.5429C19.4814 11.5141 19.411 11.4995 19.34 11.5H16.4V10.44C16.4 10.2181 16.4437 9.99831 16.5286 9.79327C16.6136 9.58823 16.7381 9.40192 16.895 9.24499C17.0519 9.08806 17.2382 8.96357 17.4433 8.87864C17.6483 8.79371 17.8681 8.75 18.09 8.75H19.9C20.0326 8.75 20.1598 8.69732 20.2536 8.60355C20.3473 8.50979 20.4 8.38261 20.4 8.25V5.25C20.4 5.11739 20.3473 4.99021 20.2536 4.89645C20.1598 4.80268 20.0326 4.75 19.9 4.75H18.09C16.5809 4.75 15.1336 5.34948 14.0666 6.41656C12.9995 7.48364 12.4 8.93092 12.4 10.44V11.5H9.9C9.76739 11.5 9.64021 11.5527 9.54645 11.6464C9.45268 11.7402 9.4 11.8674 9.4 12V15C9.4 15.1326 9.45268 15.2598 9.54645 15.3536C9.64021 15.4473 9.76739 15.5 9.9 15.5H12.4V24Z" stroke="current" stroke-width="1.5" stroke-linecap="round" stroke-linejoin="round"/>
</svg>
