<svg width="25" height="25" viewBox="0 0 25 25" fill="none" xmlns="http://www.w3.org/2000/svg">
<g clip-path="url(#clip0)">
<path d="M12.5 22.3441L2.91202 12.3441C2.06935 11.5021 1.51318 10.4161 1.32238 9.24029C1.13158 8.06443 1.31584 6.85834 1.84902 5.79309V5.79309C2.25108 4.98921 2.83839 4.29237 3.56257 3.75998C4.28674 3.22759 5.12706 2.87489 6.01427 2.73094C6.90149 2.58699 7.81021 2.65592 8.66557 2.93204C9.52092 3.20815 10.2984 3.68356 10.934 4.31909L12.5 5.88409L14.066 4.31909C14.7016 3.68356 15.4791 3.20815 16.3345 2.93204C17.1898 2.65592 18.0985 2.58699 18.9858 2.73094C19.873 2.87489 20.7133 3.22759 21.4375 3.75998C22.1617 4.29237 22.749 4.98921 23.151 5.79309C23.6835 6.85793 23.8674 8.0633 23.6768 9.23849C23.4862 10.4137 22.9307 11.4991 22.089 12.3411L12.5 22.3441Z" stroke="current" stroke-width="1.5" stroke-linecap="round" stroke-linejoin="round"/>
</g>
<defs>
<clipPath id="clip0">
<rect width="24" height="24" fill="white" transform="translate(0.5 0.5)"/>
</clipPath>
</defs>
</svg>
