<svg width="25" height="25" viewBox="0 0 25 25" fill="none" xmlns="http://www.w3.org/2000/svg">
<path d="M17.5 1H7C3.68629 1 1 3.68629 1 7V17.5C1 20.8137 3.68629 23.5 7 23.5H17.5C20.8137 23.5 23.5 20.8137 23.5 17.5V7C23.5 3.68629 20.8137 1 17.5 1Z" stroke="current" stroke-width="1.5" stroke-linecap="round" stroke-linejoin="round"/>
<path d="M12.25 17.25C15.0114 17.25 17.25 15.0114 17.25 12.25C17.25 9.48858 15.0114 7.25 12.25 7.25C9.48858 7.25 7.25 9.48858 7.25 12.25C7.25 15.0114 9.48858 17.25 12.25 17.25Z" stroke="current" stroke-width="1.5" stroke-linecap="round" stroke-linejoin="round"/>
<path d="M19.6 5.3999C19.6 5.53251 19.5474 5.65969 19.4536 5.75346C19.3598 5.84722 19.2326 5.8999 19.1 5.8999C18.9674 5.8999 18.8403 5.84722 18.7465 5.75346C18.6527 5.65969 18.6 5.53251 18.6 5.3999" stroke="current" stroke-width="1.5" stroke-linecap="round" stroke-linejoin="round"/>
<path d="M18.6 5.3999C18.6 5.26729 18.6527 5.14012 18.7465 5.04635C18.8403 4.95258 18.9674 4.8999 19.1 4.8999C19.2326 4.8999 19.3598 4.95258 19.4536 5.04635C19.5474 5.14012 19.6 5.26729 19.6 5.3999" stroke="current" stroke-width="1.5" stroke-linecap="round" stroke-linejoin="round"/>
</svg>
