<svg width="24" height="24" viewBox="0 0 24 24" fill="none" xmlns="http://www.w3.org/2000/svg">
<g clip-path="url(#clip0)">
<path d="M5.67001 22.6299H0.810011V8.69988H5.67001V22.6299ZM15.76 13.2399C15.1924 13.2399 14.6481 13.4653 14.2468 13.8667C13.8455 14.268 13.62 14.8123 13.62 15.3799V22.6299H8.51001V8.69988H13.62V10.2899C14.8177 9.27594 16.3309 8.71027 17.9 8.68988C21.07 8.68988 23.27 11.0399 23.27 15.4999V22.6299H17.9V15.3799C17.9013 15.098 17.8469 14.8187 17.74 14.5579C17.633 14.2971 17.4756 14.06 17.2768 13.8602C17.0779 13.6604 16.8416 13.5019 16.5813 13.3937C16.321 13.2856 16.0419 13.2299 15.76 13.2299V13.2399ZM5.76001 3.87988C5.76001 4.37434 5.61339 4.85769 5.33869 5.26881C5.06398 5.67993 4.67353 6.00036 4.21672 6.18958C3.7599 6.3788 3.25724 6.42831 2.77229 6.33185C2.28733 6.23538 1.84188 5.99728 1.49224 5.64765C1.14261 5.29802 0.904511 4.85256 0.808048 4.36761C0.711585 3.88266 0.761093 3.37999 0.950312 2.92317C1.13953 2.46636 1.45996 2.07591 1.87109 1.80121C2.28221 1.52651 2.76556 1.37988 3.26001 1.37988C3.91958 1.38516 4.55034 1.65088 5.01486 2.11915C5.47939 2.58742 5.74003 3.22029 5.74001 3.87988H5.76001Z" stroke="current" stroke-width="1.5" stroke-linecap="round" stroke-linejoin="round"/>
</g>
<defs>
<clipPath id="clip0">
<rect width="24" height="24" fill="white"/>
</clipPath>
</defs>
</svg>
