<svg width="51" height="50" viewBox="0 0 51 50" fill="none" xmlns="http://www.w3.org/2000/svg">
<path d="M25.5 21.875C28.9518 21.875 31.75 19.0768 31.75 15.625C31.75 12.1732 28.9518 9.375 25.5 9.375C22.0482 9.375 19.25 12.1732 19.25 15.625C19.25 19.0768 22.0482 21.875 25.5 21.875Z" stroke="#243A4D" stroke-width="2" stroke-linecap="round" stroke-linejoin="round"/>
<path d="M25.5 1.5625C29.2296 1.5625 32.8065 3.04408 35.4437 5.68131C38.0809 8.31854 39.5625 11.8954 39.5625 15.625C39.5625 22.3979 28.8708 37.5562 26.1333 41.3271C26.0604 41.4265 25.965 41.5074 25.855 41.5632C25.745 41.6189 25.6233 41.648 25.5 41.648C25.3766 41.648 25.255 41.6189 25.145 41.5632C25.035 41.5074 24.9396 41.4265 24.8667 41.3271C22.1292 37.5562 11.4375 22.3979 11.4375 15.625C11.4375 11.8954 12.9191 8.31854 15.5563 5.68131C18.1935 3.04408 21.7704 1.5625 25.5 1.5625V1.5625Z" stroke="#243A4D" stroke-width="2" stroke-linecap="round" stroke-linejoin="round"/>
<path d="M37.9562 37.05C43.6479 38.1771 47.375 40.0584 47.375 42.1875C47.375 45.6396 37.5833 48.4375 25.5 48.4375C13.4167 48.4375 3.625 45.6396 3.625 42.1875C3.625 40.0625 7.33542 38.1855 13 37.0563" stroke="#243A4D" stroke-width="2" stroke-linecap="round" stroke-linejoin="round"/>
</svg>
