<svg width="50" height="50" viewBox="0 0 50 50" fill="none" xmlns="http://www.w3.org/2000/svg">
<path d="M25 40.625C33.6294 40.625 40.625 33.6294 40.625 25C40.625 16.3706 33.6294 9.375 25 9.375C16.3706 9.375 9.375 16.3706 9.375 25C9.375 33.6294 16.3706 40.625 25 40.625Z" stroke="#243A4D" stroke-width="2" stroke-linecap="round" stroke-linejoin="round"/>
<path d="M25 29.6875C27.5888 29.6875 29.6875 27.5888 29.6875 25C29.6875 22.4112 27.5888 20.3125 25 20.3125C22.4112 20.3125 20.3125 22.4112 20.3125 25C20.3125 27.5888 22.4112 29.6875 25 29.6875Z" stroke="#243A4D" stroke-width="2" stroke-linecap="round" stroke-linejoin="round"/>
<path d="M9.375 25.3543C10.9948 28.0551 13.2746 30.2999 16.0001 31.8779C18.7256 33.4558 21.8075 34.3151 24.9562 34.3751C28.1047 34.315 31.1862 33.4556 33.9114 31.8776C36.6366 30.2997 38.9159 28.055 40.5354 25.3543L40.625 25.1897" stroke="#243A4D" stroke-width="2" stroke-linecap="round" stroke-linejoin="round"/>
<path d="M9.375 24.6438C10.9951 21.9433 13.2749 19.6989 16.0004 18.1213C18.7259 16.5437 21.8077 15.6847 24.9562 15.625C28.1045 15.6849 31.1859 16.544 33.911 18.1216C36.6362 19.6991 38.9157 21.9435 40.5354 24.6438L40.625 24.8062" stroke="#243A4D" stroke-width="2" stroke-linecap="round" stroke-linejoin="round"/>
<path d="M25 1.5625V9.375" stroke="#243A4D" stroke-width="2" stroke-linecap="round" stroke-linejoin="round"/>
<path d="M1.5625 25H9.375" stroke="#243A4D" stroke-width="2" stroke-linecap="round" stroke-linejoin="round"/>
<path d="M25 48.4375V40.625" stroke="#243A4D" stroke-width="2" stroke-linecap="round" stroke-linejoin="round"/>
<path d="M48.4375 25H40.625" stroke="#243A4D" stroke-width="2" stroke-linecap="round" stroke-linejoin="round"/>
<path d="M48.2958 25H40.625" stroke="#243A4D" stroke-width="2" stroke-linecap="round" stroke-linejoin="round"/>
<path d="M48.4375 1.5625L42.1875 7.8125" stroke="#243A4D" stroke-width="2" stroke-linecap="round" stroke-linejoin="round"/>
<path d="M1.5625 1.5625L7.8125 7.8125" stroke="#243A4D" stroke-width="2" stroke-linecap="round" stroke-linejoin="round"/>
<path d="M48.4375 48.4375L42.1875 42.1875" stroke="#243A4D" stroke-width="2" stroke-linecap="round" stroke-linejoin="round"/>
<path d="M1.5625 48.4375L7.8125 42.1875" stroke="#243A4D" stroke-width="2" stroke-linecap="round" stroke-linejoin="round"/>
</svg>
